<svg xmlns="http://www.w3.org/2000/svg" xmlns:xlink="http://www.w3.org/1999/xlink" width="94.844" height="96.579" viewBox="0 0 94.844 96.579"><defs><clipPath id="a"><rect width="94.844" height="96.579" fill="#feb900"/></clipPath></defs><g transform="translate(-565 -4895)"><g transform="translate(565 4895)"><g clip-path="url(#a)"><path d="M26.5,239.039H1.439A1.437,1.437,0,0,1,0,237.6V208.453a1.437,1.437,0,0,1,1.439-1.435H26.5a1.437,1.437,0,0,1,1.438,1.435V237.6a1.437,1.437,0,0,1-1.438,1.435m-23.62-2.87H25.058V209.888H2.877Z" transform="translate(0 -142.46)" fill="#feb900"/><path d="M133.777,199.107H108.722a1.437,1.437,0,0,1-1.439-1.435V150.425a1.437,1.437,0,0,1,1.439-1.435h25.055a1.437,1.437,0,0,1,1.438,1.435v47.247a1.437,1.437,0,0,1-1.438,1.435m-23.617-2.87h22.178V151.86H110.16Z" transform="translate(-73.827 -102.528)" fill="#feb900"/><path d="M241.052,157.007H215.994a1.437,1.437,0,0,1-1.439-1.435V89.247a1.437,1.437,0,0,1,1.439-1.435h25.058a1.437,1.437,0,0,1,1.438,1.435v66.326a1.437,1.437,0,0,1-1.438,1.435m-23.62-2.87h22.181V90.682H217.432Z" transform="translate(-147.647 -60.428)" fill="#feb900"/><path d="M16.118,47.45A1.433,1.433,0,0,1,15.107,45l16.6-16.463a1.428,1.428,0,0,1,1.011-.417h13.43L62.181,15.592a1.424,1.424,0,0,1,.883-.3H81.213L97.185.387a1.452,1.452,0,0,1,2.029.07,1.438,1.438,0,0,1-.071,2.036L82.758,17.776a1.432,1.432,0,0,1-.979.382H63.559L47.531,30.684a1.425,1.425,0,0,1-.883.3H33.312L17.128,47.034a1.406,1.406,0,0,1-1.011.417" transform="translate(-10.102 -0.006)" fill="#feb900"/><path d="M254.933,13.664a1.437,1.437,0,0,1-1.439-1.435V2.87h-9.564a1.435,1.435,0,1,1,0-2.87h11a1.437,1.437,0,0,1,1.438,1.435V12.229a1.437,1.437,0,0,1-1.438,1.435" transform="translate(-166.872)" fill="#feb900"/></g></g></g></svg>