<svg xmlns="http://www.w3.org/2000/svg" xmlns:xlink="http://www.w3.org/1999/xlink" width="74.257" height="100.155" viewBox="0 0 74.257 100.155"><defs><clipPath id="a"><rect width="74.257" height="100.155" transform="translate(0 0)" fill="#feb900"/></clipPath></defs><g transform="translate(0 0.001)"><g transform="translate(0 -0.001)" clip-path="url(#a)"><path d="M78.076,97.739A4.353,4.353,0,0,1,73.8,92.654l1.418-8.277a.832.832,0,0,0-.237-.737l-6.015-5.865a4.341,4.341,0,0,1,2.409-7.407l8.308-1.206a.845.845,0,0,0,.634-.461l3.714-7.528c1.473-2.995,6.313-2.986,7.786,0l3.718,7.532a.85.85,0,0,0,.638.461l8.3,1.2a4.341,4.341,0,0,1,2.409,7.407l-6.011,5.86a.83.83,0,0,0-.241.737l1.418,8.282a4.343,4.343,0,0,1-6.3,4.58L88.31,93.326a.833.833,0,0,0-.78,0L80.1,97.234a4.334,4.334,0,0,1-2.021.5m9.842-35.48a.806.806,0,0,0-.745.465l-3.719,7.532a4.361,4.361,0,0,1-3.266,2.374l-8.316,1.211a.836.836,0,0,0-.461,1.426l6.011,5.86a4.328,4.328,0,0,1,1.25,3.848l-1.418,8.273a.808.808,0,0,0,.336.819.827.827,0,0,0,.879.065L85.9,90.224a4.344,4.344,0,0,1,4.037,0l7.433,3.908a.831.831,0,0,0,.879-.065.807.807,0,0,0,.336-.819l-1.418-8.277a4.327,4.327,0,0,1,1.254-3.848l6.006-5.856a.835.835,0,0,0-.461-1.426l-8.308-1.207a4.366,4.366,0,0,1-3.271-2.374l-3.723-7.536a.807.807,0,0,0-.75-.465" transform="translate(-51.755 -45.086)" fill="#feb900"/><path d="M52.557,66.316a7.311,7.311,0,0,1-2.788-.556l-3.227-1.323a3.853,3.853,0,0,0-2.874,0L40.44,65.76a7.26,7.26,0,0,1-8.747-2.568l-2-2.857a3.79,3.79,0,0,0-2.426-1.556l-3.426-.633a7.249,7.249,0,0,1-5.968-6.886l-.138-3.486a3.77,3.77,0,0,0-1.194-2.616L14,42.772a7.27,7.27,0,0,1-1.3-9.023l1.767-3.008a3.765,3.765,0,0,0,.409-2.848l-.849-3.383a7.254,7.254,0,0,1,3.788-8.29l3.115-1.573a3.8,3.8,0,0,0,1.883-2.176l1.116-3.3a7.282,7.282,0,0,1,7.666-4.93l3.469.358a3.609,3.609,0,0,0,2.758-.81l2.728-2.176a7.255,7.255,0,0,1,9.113,0l2.728,2.176a3.709,3.709,0,0,0,2.758.81l3.469-.358a7.294,7.294,0,0,1,7.666,4.93l1.116,3.3a3.793,3.793,0,0,0,1.887,2.176L72.4,16.221a7.251,7.251,0,0,1,3.783,8.29l-.845,3.383a3.765,3.765,0,0,0,.409,2.848l1.766,3.008a7.268,7.268,0,0,1-1.293,9.019l-2.551,2.391a3.771,3.771,0,0,0-1.194,2.616l-.138,3.486a7.25,7.25,0,0,1-5.968,6.886l-3.43.633a3.792,3.792,0,0,0-2.422,1.556l-2,2.857a7.258,7.258,0,0,1-5.959,3.124M45.1,60.654a7.273,7.273,0,0,1,2.766.543L51.1,62.52a3.776,3.776,0,0,0,4.55-1.336l2-2.857A7.265,7.265,0,0,1,62.3,55.333l3.434-.633a3.773,3.773,0,0,0,3.107-3.576l.138-3.486a7.246,7.246,0,0,1,2.3-5.037l2.547-2.387a3.777,3.777,0,0,0,.668-4.688l-1.767-3.008a7.29,7.29,0,0,1-.789-5.477l.849-3.383a3.764,3.764,0,0,0-1.965-4.309L67.7,17.776a7.264,7.264,0,0,1-3.624-4.184l-1.116-3.3a3.756,3.756,0,0,0-3.986-2.56l-3.469.358A7.194,7.194,0,0,1,50.2,6.525L47.473,4.349a3.757,3.757,0,0,0-4.735,0L40.009,6.525A7.3,7.3,0,0,1,34.7,8.085l-3.469-.358a3.742,3.742,0,0,0-3.986,2.56l-1.116,3.3a7.272,7.272,0,0,1-3.62,4.184l-3.12,1.573a3.775,3.775,0,0,0-1.965,4.309l.853,3.383a7.288,7.288,0,0,1-.789,5.477l-1.766,3.008a3.779,3.779,0,0,0,.672,4.692L18.939,42.6a7.245,7.245,0,0,1,2.3,5.037l.138,3.486A3.773,3.773,0,0,0,24.48,54.7l3.43.633a7.264,7.264,0,0,1,4.654,2.995l2,2.857a3.788,3.788,0,0,0,4.55,1.336L42.341,61.2a7.269,7.269,0,0,1,2.762-.543" transform="translate(-8.939 0.001)" fill="#feb900"/><path d="M182.855,281.61a1.761,1.761,0,0,1-1.59-1.013L171.9,260.56a1.754,1.754,0,0,1,3.18-1.482l7.351,15.736,3.283-11.841a1.754,1.754,0,0,1,2.128-1.228l11.9,3.077-17.4-24.893a1.751,1.751,0,0,1,2.87-2.008l20.123,28.784a1.751,1.751,0,0,1,0,2,1.726,1.726,0,0,1-1.879.7l-14.823-3.835-4.089,14.754A1.749,1.749,0,0,1,183,281.6c-.052,0-.1.009-.147.009" transform="translate(-131.391 -181.455)" fill="#feb900"/><path d="M22.8,284.391c-.047,0-.095,0-.147-.009a1.754,1.754,0,0,1-1.543-1.275l-4.093-14.754L2.192,272.188a1.753,1.753,0,0,1-1.875-2.7L19.841,241.56a1.751,1.751,0,1,1,2.87,2.008L5.906,267.6l11.9-3.077a1.75,1.75,0,0,1,2.129,1.228L23.219,277.6l14.426-30.886a1.754,1.754,0,0,1,3.18,1.482L24.387,283.378a1.761,1.761,0,0,1-1.59,1.013" transform="translate(0 -184.236)" fill="#feb900"/></g></g></svg>