<svg xmlns="http://www.w3.org/2000/svg" xmlns:xlink="http://www.w3.org/1999/xlink" width="72.979" height="86.531" viewBox="0 0 72.979 86.531"><defs><clipPath id="a"><rect width="72.979" height="86.531" fill="#feb900"/></clipPath></defs><g clip-path="url(#a)"><path d="M34.362,110.037a5.868,5.868,0,0,1-5.882-5.869V90.328a1.123,1.123,0,0,1,2.246,0v13.84a3.634,3.634,0,0,0,1.194,2.688,3.577,3.577,0,0,0,2.807.916,3.808,3.808,0,0,0,3.247-3.875V89.874A8.381,8.381,0,0,0,29.6,81.5a4.588,4.588,0,0,0-2.734.913l-6.085,4.573a1.124,1.124,0,0,1-1.35,0l-6.085-4.573a4.582,4.582,0,0,0-2.733-.913,8.381,8.381,0,0,0-8.371,8.371v14.294a3.633,3.633,0,0,0,1.194,2.688,3.576,3.576,0,0,0,2.807.916A3.808,3.808,0,0,0,9.494,103.9V90.328a1.123,1.123,0,0,1,2.246,0V103.9a6.073,6.073,0,0,1-5.268,6.111A5.871,5.871,0,0,1,0,104.168V89.874A10.629,10.629,0,0,1,10.617,79.257,6.839,6.839,0,0,1,14.7,80.62l5.411,4.066L25.52,80.62A6.844,6.844,0,0,1,29.6,79.257,10.629,10.629,0,0,1,40.22,89.874V103.9a6.073,6.073,0,0,1-5.268,6.111c-.2.019-.393.029-.589.029" transform="translate(0 -57.934)" fill="#feb900"/><path d="M76.457,171.5a5.868,5.868,0,0,1-5.883-5.869V142.493a1.123,1.123,0,1,1,2.246,0v23.133a3.63,3.63,0,0,0,1.194,2.687,3.578,3.578,0,0,0,2.808.917,3.809,3.809,0,0,0,3.246-3.875v-48a1.123,1.123,0,1,1,2.246,0v48a6.073,6.073,0,0,1-5.268,6.111c-.2.019-.393.029-.589.029" transform="translate(-51.587 -84.965)" fill="#feb900"/><path d="M41.145,171.5c-.2,0-.392-.009-.589-.029a6.073,6.073,0,0,1-5.267-6.111v-48a1.123,1.123,0,1,1,2.246,0v48a3.809,3.809,0,0,0,3.246,3.875,3.571,3.571,0,0,0,2.807-.916,3.633,3.633,0,0,0,1.194-2.688V142.493a1.123,1.123,0,1,1,2.246,0v23.133a5.868,5.868,0,0,1-5.883,5.869" transform="translate(-25.795 -84.965)" fill="#feb900"/><path d="M47.09,20.359A10.18,10.18,0,1,1,57.27,10.18a10.191,10.191,0,0,1-10.18,10.18m0-18.114a7.934,7.934,0,1,0,7.935,7.935A7.943,7.943,0,0,0,47.09,2.245" transform="translate(-26.98 0.001)" fill="#feb900"/><path d="M185.962,25A12.5,12.5,0,1,1,191.87,1.481a1.123,1.123,0,0,1-1.063,1.98,10.237,10.237,0,1,0,5.184,6.891,1.123,1.123,0,0,1,2.2-.469A12.512,12.512,0,0,1,185.962,25" transform="translate(-126.795)" fill="#feb900"/><path d="M195.605,21.784a1.118,1.118,0,0,1-.794-.329l-5.323-5.323a1.123,1.123,0,0,1,1.588-1.588l4.529,4.528L209.331,5.347a1.123,1.123,0,0,1,1.588,1.588L196.4,21.455a1.119,1.119,0,0,1-.794.329" transform="translate(-138.269 -3.668)" fill="#feb900"/><path d="M185.962,139.358a12.5,12.5,0,1,1,5.908-23.519,1.123,1.123,0,0,1-1.063,1.98,10.236,10.236,0,1,0,5.184,6.891,1.123,1.123,0,1,1,2.2-.468,12.512,12.512,0,0,1-12.226,15.117" transform="translate(-126.795 -83.592)" fill="#feb900"/><path d="M195.605,136.139a1.12,1.12,0,0,1-.794-.329l-5.323-5.323a1.123,1.123,0,0,1,1.588-1.588l4.529,4.528L209.331,119.7a1.123,1.123,0,0,1,1.588,1.588L196.4,135.81a1.121,1.121,0,0,1-.794.329" transform="translate(-138.269 -87.258)" fill="#feb900"/><path d="M185.962,253.716A12.5,12.5,0,1,1,191.87,230.2a1.123,1.123,0,1,1-1.063,1.979,10.236,10.236,0,1,0,5.184,6.891,1.123,1.123,0,0,1,2.2-.468,12.512,12.512,0,0,1-12.226,15.116" transform="translate(-126.795 -167.184)" fill="#feb900"/><path d="M195.605,250.5a1.118,1.118,0,0,1-.794-.329l-5.323-5.322a1.123,1.123,0,0,1,1.588-1.588l4.529,4.528,13.726-13.725a1.123,1.123,0,0,1,1.588,1.588l-14.52,14.52a1.119,1.119,0,0,1-.794.329" transform="translate(-138.269 -170.85)" fill="#feb900"/></g></svg>