<svg xmlns="http://www.w3.org/2000/svg" xmlns:xlink="http://www.w3.org/1999/xlink" width="106.742" height="106.742" viewBox="0 0 106.742 106.742"><defs><clipPath id="a"><rect width="106.742" height="106.742" fill="#feb900"/></clipPath></defs><g clip-path="url(#a)"><path d="M300.407,344.5a.31.31,0,0,1-.282-.441l2.372-5.113H300.3a.31.31,0,0,1-.231-.516l5.847-6.558a.31.31,0,0,1,.52.321l-1.9,4.771h2.427a.31.31,0,0,1,.225.524l-6.558,6.915a.309.309,0,0,1-.225.1m.587-6.174h1.989a.31.31,0,0,1,.282.441l-1.779,3.835,4.758-5.017h-2.162a.31.31,0,0,1-.288-.425l1.419-3.563Z" transform="translate(-250.081 -276.574)" fill="#feb900"/><path d="M320.3,388.925H308.843a.31.31,0,1,1,0-.621H320.3a2.394,2.394,0,0,0,2.073-3.591l-1.807-3.13a.31.31,0,0,1,.537-.31l1.807,3.13a3.015,3.015,0,0,1-2.61,4.522" transform="translate(-257.201 -317.709)" fill="#feb900"/><path d="M311.131,417.545a.309.309,0,0,1-.195-.069l-2.286-1.843a.31.31,0,0,1,0-.483l2.286-1.844a.31.31,0,0,1,.389.483l-1.987,1.6,1.987,1.6a.31.31,0,0,1-.195.552" transform="translate(-257.202 -344.486)" fill="#feb900"/><path d="M312.141,304.367a.311.311,0,0,1-.269-.155l-5.769-9.994a2.394,2.394,0,0,0-4.147,0l-.91,1.577a.31.31,0,1,1-.537-.31l.91-1.577a3.015,3.015,0,0,1,5.221,0l5.769,9.994a.31.31,0,0,1-.113.424.306.306,0,0,1-.155.042" transform="translate(-250.476 -243.753)" fill="#feb900"/><path d="M355.693,347.08a.317.317,0,0,1-.112-.021l-2.666-1.03a.31.31,0,0,1,.223-.579l2.307.892.381-2.444a.31.31,0,0,1,.613.1L356,346.818a.311.311,0,0,1-.306.262" transform="translate(-294.033 -286.463)" fill="#feb900"/><path d="M251.733,346.075h-2.378a3.015,3.015,0,0,1-2.611-4.522l6.745-11.682a.31.31,0,1,1,.537.31l-6.745,11.682a2.394,2.394,0,0,0,2.074,3.591h2.378a.31.31,0,1,1,0,.621" transform="translate(-205.352 -274.859)" fill="#feb900"/><path d="M273.87,333.738a.311.311,0,0,1-.306-.262l-.47-3.013-2.845,1.1a.31.31,0,0,1-.223-.579l3.2-1.238a.315.315,0,0,1,.267.021.311.311,0,0,1,.151.221l.53,3.393a.311.311,0,0,1-.259.354.317.317,0,0,1-.048,0" transform="translate(-224.934 -274.867)" fill="#feb900"/><path d="M215.475,187.426H175.411a6.054,6.054,0,0,1-6.047-6.047V126.725a5.813,5.813,0,0,1,5.805-5.805h19.147a5.82,5.82,0,0,1,5.282,3.395l2.034,4.458a17.222,17.222,0,0,0,7.613,8.049l9.043,4.751a6.03,6.03,0,0,1,3.234,5.353v34.453a6.054,6.054,0,0,1-6.047,6.047m-40.306-64.815a4.12,4.12,0,0,0-4.115,4.115v54.653a4.361,4.361,0,0,0,4.357,4.357h40.064a4.361,4.361,0,0,0,4.357-4.357V146.926a4.347,4.347,0,0,0-2.33-3.858l-9.043-4.751a18.915,18.915,0,0,1-8.364-8.842l-2.034-4.458a4.125,4.125,0,0,0-3.745-2.406Z" transform="translate(-141.186 -100.802)" fill="#feb900"/><path d="M224.637,167.119H208.969a2.776,2.776,0,0,1-2.772-2.772v-5.96a2.776,2.776,0,0,1,2.772-2.772h13.047a2.774,2.774,0,0,1,2.538,1.656l2.621,5.96a2.772,2.772,0,0,1-2.538,3.888m-15.668-9.813a1.083,1.083,0,0,0-1.082,1.082v5.96a1.083,1.083,0,0,0,1.082,1.082h15.668a1.082,1.082,0,0,0,.991-1.518l-2.621-5.96a1.082,1.082,0,0,0-.991-.645Z" transform="translate(-171.891 -129.725)" fill="#feb900"/><path d="M397,182.419a.846.846,0,0,1-.725-1.277l3.074-5.176-6.605-3.924-3.193,5.374a.845.845,0,0,1-1.452-.863l3.623-6.1a.843.843,0,0,1,1.158-.294l8.058,4.786a.844.844,0,0,1,.294,1.158l-3.506,5.9a.844.844,0,0,1-.727.414" transform="translate(-323.428 -141.749)" fill="#feb900"/><path d="M410.509,145.609a1.652,1.652,0,0,1-.849-.235l-11.327-6.728a1.667,1.667,0,0,1-.58-2.283l2.311-3.89a1.668,1.668,0,0,1,2.282-.58l11.327,6.727a1.667,1.667,0,0,1,.581,2.282l-2.311,3.891a1.647,1.647,0,0,1-1.019.763,1.728,1.728,0,0,1-.415.052m-9.026-12.264-2.278,3.882,11.319,6.695,2.265-3.863Z" transform="translate(-331.382 -109.755)" fill="#feb900"/><path d="M53.371,106.742a53.371,53.371,0,0,1-37.739-91.11A53.371,53.371,0,1,1,91.11,91.11a53.021,53.021,0,0,1-37.739,15.632m0-103.581a50.21,50.21,0,0,0-35.5,85.714A50.21,50.21,0,1,0,88.875,17.867a49.881,49.881,0,0,0-35.5-14.706" transform="translate(0 0)" fill="#feb900"/><rect width="3.161" height="103.586" transform="translate(22.947 11.438) rotate(-34.625)" fill="#feb900"/></g></svg>