<svg xmlns="http://www.w3.org/2000/svg" xmlns:xlink="http://www.w3.org/1999/xlink" width="94.844" height="95.486" viewBox="0 0 94.844 95.486"><defs><clipPath id="a"><rect width="94.844" height="95.486" fill="#feb900"/></clipPath></defs><g clip-path="url(#a)"><path d="M125.707,254.475H106.766a5.369,5.369,0,0,1-5.364-5.363,14.834,14.834,0,0,1,29.669,0,5.369,5.369,0,0,1-5.364,5.363M116.236,236.9a12.225,12.225,0,0,0-12.212,12.211,2.744,2.744,0,0,0,2.741,2.741h18.941a2.744,2.744,0,0,0,2.741-2.74A12.225,12.225,0,0,0,116.236,236.9" transform="translate(-68.815 -158.989)" fill="#feb900"/><path d="M144.793,6.44a1.311,1.311,0,0,1-1.311-1.311V1.311a1.311,1.311,0,1,1,2.622,0V5.129a1.311,1.311,0,0,1-1.311,1.311" transform="translate(-97.372)" fill="#feb900"/><path d="M144.793,106.317a1.311,1.311,0,0,1-1.311-1.311V43.167a1.311,1.311,0,1,1,2.622,0v61.838a1.311,1.311,0,0,1-1.311,1.311" transform="translate(-97.372 -28.405)" fill="#feb900"/><path d="M186.566,33.86a1.308,1.308,0,0,1-.793-.268c-7.622-5.8-19.3-9.361-27.5-10.32a1.311,1.311,0,0,1,.305-2.6c8.551,1,20.767,4.739,28.783,10.838a1.312,1.312,0,0,1-.8,2.356" transform="translate(-106.623 -14.018)" fill="#feb900"/><path d="M43.6,33.861a1.312,1.312,0,0,1-.8-2.356c8.016-6.1,20.23-9.837,28.78-10.837a1.311,1.311,0,1,1,.305,2.6c-8.195.96-19.876,4.522-27.5,10.32a1.308,1.308,0,0,1-.793.268" transform="translate(-28.694 -14.019)" fill="#feb900"/><path d="M245.994,45.1a1.312,1.312,0,0,1-.927-2.239l5.256-5.255a1.311,1.311,0,0,1,1.854,1.855l-5.256,5.255a1.309,1.309,0,0,1-.927.384" transform="translate(-166.05 -25.264)" fill="#feb900"/><path d="M32.5,45.1a1.306,1.306,0,0,1-.927-.384l-5.256-5.255a1.311,1.311,0,0,1,1.854-1.855l5.256,5.255A1.312,1.312,0,0,1,32.5,45.1" transform="translate(-17.596 -25.263)" fill="#feb900"/><path d="M217.3,167.474c-8.493,0-14.9-3.03-14.9-7.048s6.4-7.048,14.9-7.048,14.9,3.03,14.9,7.048-6.4,7.048-14.9,7.048m0-11.474c-7.606,0-12.276,2.578-12.276,4.426s4.67,4.426,12.276,4.426,12.276-2.578,12.276-4.426S224.908,156,217.3,156" transform="translate(-137.358 -104.088)" fill="#feb900"/><path d="M217.3,190.559a14.916,14.916,0,0,1-14.9-14.9v-3.12a1.311,1.311,0,0,1,2.623,0v3.12a12.276,12.276,0,1,0,24.552,0v-3.12a1.311,1.311,0,0,1,2.623,0v3.12a14.916,14.916,0,0,1-14.9,14.9" transform="translate(-137.358 -116.202)" fill="#feb900"/><path d="M203.714,94.011a1.312,1.312,0,0,1-1.234-1.755l13.587-37.808a1.312,1.312,0,1,1,2.469.887L204.948,93.142a1.311,1.311,0,0,1-1.234.868" transform="translate(-137.357 -36.36)" fill="#feb900"/><path d="M259.581,94.011a1.311,1.311,0,0,1-1.234-.868L244.758,55.334a1.312,1.312,0,1,1,2.469-.887l13.588,37.808a1.312,1.312,0,0,1-1.234,1.755" transform="translate(-166.049 -36.36)" fill="#feb900"/><path d="M14.9,167.474c-8.494,0-14.9-3.03-14.9-7.048s6.4-7.048,14.9-7.048,14.9,3.03,14.9,7.048-6.4,7.048-14.9,7.048M14.9,156c-7.606,0-12.277,2.578-12.277,4.426S7.3,164.852,14.9,164.852s12.276-2.578,12.276-4.426S22.507,156,14.9,156" transform="translate(-0.001 -104.088)" fill="#feb900"/><path d="M14.9,190.559A14.916,14.916,0,0,1,0,175.66v-3.12a1.311,1.311,0,0,1,2.623,0v3.12a12.276,12.276,0,1,0,24.552,0v-3.12a1.311,1.311,0,0,1,2.623,0v3.12a14.916,14.916,0,0,1-14.9,14.9" transform="translate(-0.001 -116.202)" fill="#feb900"/><path d="M1.312,94.011A1.312,1.312,0,0,1,.077,92.255L13.665,54.447a1.312,1.312,0,1,1,2.469.887L2.546,93.142a1.311,1.311,0,0,1-1.234.868" transform="translate(0 -36.36)" fill="#feb900"/><path d="M57.181,94.011a1.311,1.311,0,0,1-1.234-.868L42.36,55.334a1.312,1.312,0,1,1,2.469-.887L58.415,92.255a1.312,1.312,0,0,1-1.234,1.755" transform="translate(-28.694 -36.36)" fill="#feb900"/><path d="M136.307,275.7H121.04a1.311,1.311,0,0,1,0-2.623h15.267a1.311,1.311,0,0,1,0,2.623" transform="translate(-81.252 -185.321)" fill="#feb900"/><path d="M134.621,24.135a6.128,6.128,0,1,1,6.129-6.128,6.135,6.135,0,0,1-6.129,6.128m0-9.634a3.506,3.506,0,1,0,3.506,3.506,3.51,3.51,0,0,0-3.506-3.506" transform="translate(-87.2 -8.061)" fill="#feb900"/></g></svg>