<svg xmlns="http://www.w3.org/2000/svg" xmlns:xlink="http://www.w3.org/1999/xlink" width="88.976" height="88.902" viewBox="0 0 88.976 88.902"><defs><clipPath id="a"><rect width="88.976" height="88.902" fill="#307dcb"/></clipPath></defs><g clip-path="url(#a)"><path d="M88.423,36.639c-.013-.013,0-.038,0-.057a4.457,4.457,0,0,0-.046-.6C84.993,15.486,67.143,1.3,48.306.383a3.639,3.639,0,0,0-.622-.134A1.21,1.21,0,0,1,47.655,0H41.239a1.19,1.19,0,0,1-.027.247H41.2a3.747,3.747,0,0,0-.614.136c-1.355.191-2.728.038-4.094.291C24.185,2.94,14.3,9.088,7.255,19.41,3.045,25.579.04,32.332.237,40.087c0,.214,0,.425,0,.641v.048a1.4,1.4,0,0,0-.237.01v7.789l.191.034.044,0v.651A24.986,24.986,0,0,0,1.6,58.476a45.316,45.316,0,0,0,17.189,23.11c5.825,4.083,12.126,7.052,19.463,7.079h.674c.008.078.017.157.019.237h11a1.182,1.182,0,0,1,.046-.4c3.2.253,6.087-.98,9.027-1.914,1.248-.394,2.67-1.039,2.1-2.7-.593-1.725-1.933-.907-3.145-.572-4.117,1.133-8.191,2.54-12.561,2.328a2.317,2.317,0,0,0-2.854,0A37.127,37.127,0,0,1,23.914,80c-4.127-2.475-4.219-2.659-3.193-6.548.375-1.418-.31-3.3,1.728-4.313,3.032-1.506,4.031-3.849,3.16-7.036a17.056,17.056,0,0,1-.4-4.46c-.027-2.9-1.143-4.37-4.012-4.925a13.9,13.9,0,0,1-6.883-3.235c-2.661-2.358-5.467-5.071-9.552-2.638-.312.186-.584.494-1.1.086,0-.741.038-1.577-.01-2.41-.048-.806.341-1.286,1.037-.928,1.912.988,3.7-.036,5.415-.392,3.932-.814,4.041-1.25,1.721-4.516-.869-1.225-.875-1.937.479-2.676a6.3,6.3,0,0,0,2.624-2.62,45.8,45.8,0,0,1,6.3-9.649,6.659,6.659,0,0,0,1.351-6.434c-.593-2.1-1.947-3.319-3.243-4.65C26.364,7.006,34.47,4.575,43.607,4.064c-1.562,1.849-2.429,3.846-4.755,4.523-2.885.84-5.706,1.9-8.549,2.885a3.426,3.426,0,0,0-2.291,1.669c-.913,2.155-1.75,4.345-2.561,6.543a3.1,3.1,0,0,0,.63,3.5A33.412,33.412,0,0,1,29.3,27.955c.264.425.8.861.115,1.552-1.229,1.244-2.268,2.674-3.455,3.964-4.485,4.864-4.617,11.273-.147,15.451a9.753,9.753,0,0,0,10.3,2.2c1.162-.389,1.968-.184,1.849.963a5.258,5.258,0,0,0,1.573,4.048,3.743,3.743,0,0,1,.658,3.6,14.326,14.326,0,0,0-.337,2.2c-.322,4.619,2.372,8.3,3.995,12.279.505,1.244,1.91,2.642,3.6,2.263a9.009,9.009,0,0,0,6.118-4.318c1.673-3.089,2.961-6.342,5.319-9.079a4.019,4.019,0,0,0,.771-4.334c-.936-2.243.253-5.076,2.487-6.414a8.179,8.179,0,0,0,2.95-3.514c1.116-2.1.366-4.041-1.884-4.28a5.563,5.563,0,0,1-4.9-3.884c-.641-1.55-1.355-3.074-1.949-4.642-1.411-3.727-7.861-6.855-10.959-5-1.746,1.047-2.364.35-2.764-1.009A3.19,3.19,0,0,0,39,27.472c-.835-.892-1.859-.287-2.8-.356-.781-.394-1.773,1.112-2.186.084-.394-.982.848-1.583,1.614-2.067a5.692,5.692,0,0,1,3.382-.861A1.609,1.609,0,0,0,40.73,22.8c.105-.7-.159-1.625-1.034-1.677-2.471-.144-4.948-.209-6.935,1.759-.448.446-.9,1.69-1.577,1.064-1.02-.936-2.6-2.031-2.15-3.591.9-3.1,1.759-6.445,6.009-6.705a15.323,15.323,0,0,0,2.72-.854A14.042,14.042,0,0,0,46.08,6.883c1.581-2.33,3.237-2.867,5.905-2.217,9.278,2.261,17.52,6.257,23.651,13.9a41.871,41.871,0,0,1,7.8,14.718c.519,1.8-1.047,2.655-1.725,3.116-.97.658-1.02-1.133-1.535-1.824-1.568-2.1-2.821-4.6-5.905-4.852a3.05,3.05,0,0,0-3.292,0c-1.6.722-3.137,1.5-1.665,3.6.454.647-.144.768-.381,1.032a14.727,14.727,0,0,1-3.876,2.552.735.735,0,0,1-1.135-.278c-1.309-2.041-3.066-4.05-3.327-6.4-.39-3.5-2.666-5.03-5.319-6.2-1.3-.578-3.474-1.878-4.282.264s1.686,2.542,3.055,3.1c1.3.534,2.492,1.319,2.68,2.462.653,3.945,3.321,6.872,4.864,10.352a1.773,1.773,0,0,0,2.5.858,27.7,27.7,0,0,0,5.333-2.611c1.581-1.072,3.47-2.085,4.137-3.842.817-2.15,1.487-1.108,2.243-.243,1.489,1.706,1.884,3.96,2.766,5.966,1.767,4.018,1.706,4.031,5.036,1.4.607-.479,1.455-1.367,1.562.392-.255.029-.412.147-.385.429.14,1.388-.406,2.835.36,4.169-.126.714-.306,1.424-.371,2.142a38.154,38.154,0,0,1-3.97,13.937A39.036,39.036,0,0,1,69.944,76.5c-.829.636-2.067,1.468-.582,2.7,1.11.921,2.106.764,3.162-.251a57.276,57.276,0,0,0,5.245-5.185,48.912,48.912,0,0,0,7.546-12.438,82.226,82.226,0,0,0,3.1-8.623c1.193-4.64.115-15.951,0-16.062M4.667,50.653c1.428-.22,2.632-1.922,4.3-.678,1.6,1.2,3.472,2.125,4.812,3.557,1.6,1.709,3.56,2.046,5.6,2.354,1.771.266,2.91.687,2.226,2.931a5.118,5.118,0,0,0,.433,3.725c.856,1.715.664,3.076-1.556,3.463-3.086.54-2.33,3.384-2.967,5.272a23.1,23.1,0,0,0-.695,3.5A43.467,43.467,0,0,1,4.182,52.442c-.147-.651-.291-1.669.484-1.79m13.481-28.7a21.149,21.149,0,0,0-4.983,7.31,12.082,12.082,0,0,1-5.023,5.364c-1.751,1.034-2.106,2.092-.789,3.658.4.477,1,1.026.54,1.639-.636.836-1.206.082-1.91-.18-2.816-1.051-1.7-3.369-1.292-4.872a42.449,42.449,0,0,1,9.739-17.9c.8-.871,1.556-2.016,3.024-1.135A4.234,4.234,0,0,1,19.3,19.2c-.348.9-.314,2.018-1.15,2.751M30.186,34.07c1.6-2.971,4.221-3.513,7.211-3.361.4.021.875-.174,1.093.473.925,2.751,3.677,3.2,5.769,4.464.7.421,1.461-.019,2.117-.379,2.929-1.61,5.164-.932,6.652,1.981,1.564,3.061,2.165,6.657,4.96,9.037.561.477,1.166,1.164,1.811,1.238,2.513.295.942,1.208.408,2.033a13.626,13.626,0,0,1-2.22,2.085A6.631,6.631,0,0,0,56.3,59.014a1.952,1.952,0,0,1-.212,1.956,31.722,31.722,0,0,0-5.277,8.853,3.385,3.385,0,0,1-.888,1.269c-.789.636-1.669,1.6-2.513,1.606-1.007,0-1.095-1.441-1.461-2.3-.572-1.342-1.032-2.712-1.721-4.027a7.028,7.028,0,0,1-.588-6.15,5.321,5.321,0,0,0-.63-5.308,8.408,8.408,0,0,1-1.482-3.379c-.6-3.172-1.727-3.874-5.189-3.87-2.226-.285-4.347,1.108-6.763-.285A6.872,6.872,0,0,1,27.79,37.035a17.288,17.288,0,0,0,2.4-2.965" fill="#307dcb"/><path d="M35.327,41.715c-.792.107-2.04.5-2.006,1.589.029.85.352,1.977,1.675,1.974,1.181,0,1.717-.708,1.989-1.954-.234-.771-.67-1.742-1.658-1.608" transform="translate(30.461 38.123)" fill="#307dcb"/><path d="M23.228,12.436a1.79,1.79,0,0,0,1.872,1.8,1.6,1.6,0,0,0,1.673-1.7c.034-1.039-.89-1.606-2.025-1.512-1-.063-1.6.339-1.52,1.418" transform="translate(21.227 10.063)" fill="#307dcb"/><path d="M38.171,45.329C40.3,41.757,40.993,37.643,42.13,34c.09-1.451-.578-2.406-.905-3.455-.394-1.26-2.083-1.924-2.7-.94-1.42,2.263-3.476,3.744-5.423,5.409a2.322,2.322,0,0,0-.546,1.637,16.555,16.555,0,0,1-.9,5.48c-.469,1.447,1.338,4.341,2.946,4.937,1.732.643,2.856-.547,3.564-1.734m-.706-11.47a1.547,1.547,0,0,1,1.29.448c.163,1.66-.911,2.8-2.014,3.983-.2-1.608-.974-3.34.724-4.431m-2.557,8.8c0,.017,0,.031,0,.048l-.04-.052a.236.236,0,0,0,.038,0,.832.832,0,0,1,.149-.67A.711.711,0,0,1,35.1,41.3c.044,0,.088,0,.132,0-.034-.029-.069-.019-.1-.057.184-.224.366-.446.547-.67.042-.094.082-.157.123-.151q.307-.577.613-1.152c.115.145.333.3.323.435-.042.672.084,1.476-.928,1.593l-.006-.01c-.01.008-.019.008-.027.015.025,0,.052,0,.078,0-.1.249-.19.5-.283.748.071.536-.186.7-.657.609" transform="translate(28.874 26.627)" fill="#307dcb"/></g></svg>