<?xml version="1.0" standalone="no"?>
<!DOCTYPE svg PUBLIC "-//W3C//DTD SVG 20010904//EN"
 "http://www.w3.org/TR/2001/REC-SVG-20010904/DTD/svg10.dtd">
<svg version="1.0" xmlns="http://www.w3.org/2000/svg"
 width="300.000000pt" height="300.000000pt" viewBox="0 0 300.000000 300.000000"
 preserveAspectRatio="xMidYMid meet">
<metadata>
Created by potrace 1.14, written by Peter Selinger 2001-2017
</metadata>
<g transform="translate(0.000000,300.000000) scale(0.100000,-0.100000)"
fill="#000000" stroke="none">
<path d="M1510 2719 c-388 -57 -612 -170 -805 -404 -28 -33 -56 -66 -63 -73
-46 -50 -105 -164 -129 -252 -4 -14 -9 -396 -10 -850 -2 -656 0 -830 10 -850
12 -25 14 -25 167 -28 148 -3 156 -2 173 19 16 19 17 56 17 435 l0 413 53 -18
c218 -75 506 -15 656 138 112 114 184 271 185 401 0 18 18 30 53 36 143 26
347 142 442 251 60 69 59 69 83 110 12 21 27 45 33 53 12 14 55 119 69 165 6
20 1 20 -487 19 -270 -1 -519 -4 -552 -8 -152 -18 -294 -73 -374 -146 -44 -39
-47 -49 -12 -30 25 13 79 22 125 21 131 -3 220 -80 251 -215 14 -63 12 -236
-4 -293 -19 -68 -70 -134 -126 -162 -42 -22 -64 -26 -136 -26 -78 0 -90 3
-134 30 -97 60 -132 148 -129 320 5 286 66 425 234 534 43 29 157 71 230 87
19 4 279 9 578 11 l543 4 8 22 c5 12 12 47 16 77 3 30 8 66 10 80 2 14 7 51
10 83 l5 58 -467 -2 c-258 -1 -493 -6 -523 -10z"/>
</g>
</svg>
