<svg xmlns="http://www.w3.org/2000/svg" xmlns:xlink="http://www.w3.org/1999/xlink" width="96.25" height="100.154" viewBox="0 0 96.25 100.154"><defs><clipPath id="a"><rect width="96.25" height="100.154" fill="#feb900"/></clipPath></defs><g clip-path="url(#a)"><path d="M54.6,234.664a1.65,1.65,0,0,1-1.172-2.81l6.44-6.493a18.788,18.788,0,0,1,13.362-5.539h22.5a8.741,8.741,0,0,1,8.727,8.731,5.583,5.583,0,0,1-5.576,5.576H79.218a1.651,1.651,0,0,1,0-3.3H98.882a2.279,2.279,0,0,0,2.275-2.275,5.434,5.434,0,0,0-5.426-5.43h-22.5A15.515,15.515,0,0,0,62.2,227.689l-6.432,6.484a1.636,1.636,0,0,1-1.172.491" transform="translate(-40.218 -166.969)" fill="#feb900"/><path d="M135.544,245.88a1.65,1.65,0,0,1-1.168-2.818l3.293-3.293a7.948,7.948,0,0,1,6.237-2.259l2.088.186a55.851,55.851,0,0,0,32.994-7.21,40.322,40.322,0,0,0,11.164-9.437l4.132-5.037a1.654,1.654,0,0,0-.223-2.315,6.152,6.152,0,0,0-8.54.612l-.937,1.038a18.939,18.939,0,0,1-14.027,6.229h-6.266a1.65,1.65,0,0,1,0-3.3h6.266a15.629,15.629,0,0,0,11.578-5.142l.937-1.038a9.477,9.477,0,0,1,13.1-.937,4.961,4.961,0,0,1,.661,6.947l-4.132,5.037a43.5,43.5,0,0,1-12.073,10.207,59.435,59.435,0,0,1-34.924,7.632l-2.093-.187A4.628,4.628,0,0,0,140,242.1l-3.293,3.293a1.66,1.66,0,0,1-1.168.483" transform="translate(-101.702 -158.723)" fill="#feb900"/><path d="M28.249,294.91a4.954,4.954,0,0,1-3.524-1.46L1.46,270.185a4.973,4.973,0,0,1,0-7.044l5.272-5.276a4.955,4.955,0,0,1,3.524-1.46h0a4.95,4.95,0,0,1,3.516,1.464L37.049,281.13a5,5,0,0,1,0,7.044l-5.276,5.276a4.962,4.962,0,0,1-3.524,1.46m-17.989-35.2a1.655,1.655,0,0,0-1.188.495L3.8,265.477a1.669,1.669,0,0,0,0,2.372l23.265,23.265a1.679,1.679,0,0,0,2.376,0l5.276-5.272a1.691,1.691,0,0,0,0-2.38L11.444,260.2a1.646,1.646,0,0,0-1.184-.495" transform="translate(0 -194.756)" fill="#feb900"/><path d="M173.6,48a4.577,4.577,0,0,1-4.489-5.373L171.055,31.6a1.238,1.238,0,0,0-.365-1.127L162.632,22.7a4.565,4.565,0,0,1,2.535-7.81l11.091-1.549a1.253,1.253,0,0,0,.961-.694l4.9-10.073a4.564,4.564,0,0,1,8.212,0l4.9,10.065a1.261,1.261,0,0,0,.961.7l11.091,1.549a4.568,4.568,0,0,1,2.539,7.81l-8.062,7.774A1.258,1.258,0,0,0,201.4,31.6l1.954,11.031a4.567,4.567,0,0,1-6.643,4.83L186.826,42.2a1.275,1.275,0,0,0-1.2,0l-9.883,5.264A4.571,4.571,0,0,1,173.6,48M186.23,3.3a1.232,1.232,0,0,0-1.14.714l-4.9,10.065a4.549,4.549,0,0,1-3.476,2.527l-11.091,1.549a1.267,1.267,0,0,0-.7,2.166l8.058,7.774a4.537,4.537,0,0,1,1.326,4.088l-1.947,11.022a1.267,1.267,0,0,0,1.841,1.342l9.883-5.264a4.575,4.575,0,0,1,4.294,0l9.883,5.264a1.27,1.27,0,0,0,1.845-1.342L198.149,32.18a4.557,4.557,0,0,1,1.33-4.088l8.062-7.77a1.27,1.27,0,0,0-.705-2.166l-11.091-1.549a4.567,4.567,0,0,1-3.476-2.527l-4.9-10.065A1.23,1.23,0,0,0,186.23,3.3" transform="translate(-122.464 -0.001)" fill="#feb900"/></g></svg>