<svg xmlns="http://www.w3.org/2000/svg" xmlns:xlink="http://www.w3.org/1999/xlink" width="136.095" height="92.437" viewBox="0 0 136.095 92.437"><defs><clipPath id="a"><rect width="136.095" height="92.436" fill="#feb900"/></clipPath></defs><g clip-path="url(#a)"><path d="M157.023,107.741a1.533,1.533,0,0,1-1.362-2.231,7.966,7.966,0,0,0,.9-3.665c0-5.338-5.417-9.681-12.073-9.681-6.346,0-11.639,3.974-12.049,9.049a1.491,1.491,0,0,1-1.65,1.4,1.532,1.532,0,0,1-1.4-1.65c.538-6.655,7.17-11.867,15.1-11.867,8.346,0,15.139,5.719,15.139,12.747a11.013,11.013,0,0,1-1.238,5.062,1.535,1.535,0,0,1-1.366.834" transform="translate(-82.787 -57.01)" fill="#feb900"/><path d="M77.814,123.318a1.533,1.533,0,0,1-1.533-1.533,12.746,12.746,0,0,1,21.743-9.028,1.533,1.533,0,0,1-2.163,2.172,9.681,9.681,0,0,0-16.513,6.857,1.533,1.533,0,0,1-1.533,1.533" transform="translate(-48.81 -69.771)" fill="#feb900"/><path d="M165.292,40.02a1.533,1.533,0,0,1-1.362-2.231,14.135,14.135,0,0,0,1.6-6.513c0-9.368-9.4-16.987-20.943-16.987-11,0-20.179,6.968-20.9,15.862a1.483,1.483,0,0,1-1.65,1.4,1.531,1.531,0,0,1-1.4-1.65c.845-10.474,11.366-18.681,23.951-18.681,13.237,0,24.008,9,24.008,20.053a17.179,17.179,0,0,1-1.935,7.91,1.535,1.535,0,0,1-1.366.834" transform="translate(-77.186 -7.181)" fill="#feb900"/><path d="M34.455,65.747a1.533,1.533,0,0,1-1.533-1.533A20.054,20.054,0,0,1,67.131,50.008a1.532,1.532,0,1,1-2.163,2.172,16.989,16.989,0,0,0-28.98,12.034,1.532,1.532,0,0,1-1.533,1.533" transform="translate(-21.066 -28.256)" fill="#feb900"/><path d="M268.193,58.26a1.533,1.533,0,0,1-1.533-1.533,13.049,13.049,0,0,0-13.035-13.033,12.9,12.9,0,0,0-8.056,2.785,1.532,1.532,0,0,1-1.9-2.406,15.931,15.931,0,0,1,9.951-3.445,16.12,16.12,0,0,1,16.1,16.1,1.533,1.533,0,0,1-1.533,1.533" transform="translate(-155.546 -25.997)" fill="#feb900"/><path d="M163.259,202.031c-13.237,0-24.007-8.995-24.007-20.053a17.181,17.181,0,0,1,1.935-7.91,1.532,1.532,0,0,1,2.728,1.4,14.135,14.135,0,0,0-1.6,6.513c0,9.368,9.393,16.987,20.941,16.987,11,0,20.181-6.968,20.9-15.862a1.51,1.51,0,0,1,1.65-1.4,1.531,1.531,0,0,1,1.4,1.65c-.845,10.475-11.367,18.681-23.953,18.681" transform="translate(-89.103 -110.849)" fill="#feb900"/><path d="M278.506,181.9a19.935,19.935,0,0,1-14.154-5.849,1.533,1.533,0,0,1,2.163-2.172,16.988,16.988,0,0,0,28.98-12.034,1.533,1.533,0,1,1,3.066,0A20.079,20.079,0,0,1,278.506,181.9" transform="translate(-168.862 -102.578)" fill="#feb900"/><path d="M92.114,192.457a16.119,16.119,0,0,1-16.1-16.1,1.533,1.533,0,0,1,3.066,0,13.049,13.049,0,0,0,13.035,13.033,12.9,12.9,0,0,0,8.056-2.785,1.532,1.532,0,1,1,1.9,2.406,15.931,15.931,0,0,1-9.951,3.445" transform="translate(-48.638 -111.865)" fill="#feb900"/><path d="M280.23,131.656a2.787,2.787,0,1,1-2.787-2.787,2.787,2.787,0,0,1,2.787,2.787" transform="translate(-175.744 -82.459)" fill="#feb900"/><path d="M368,72.642a2.787,2.787,0,1,1-2.787-2.787A2.787,2.787,0,0,1,368,72.642" transform="translate(-231.906 -44.698)" fill="#feb900"/><path d="M199.205,185.331a2.787,2.787,0,1,1-2.787-2.787,2.787,2.787,0,0,1,2.787,2.787" transform="translate(-123.899 -116.804)" fill="#feb900"/><path d="M302.892,243.984a2.787,2.787,0,1,1-2.787-2.787,2.787,2.787,0,0,1,2.787,2.787" transform="translate(-190.245 -154.335)" fill="#feb900"/><path d="M104.929,18.265a2.787,2.787,0,1,1-2.787-2.787,2.787,2.787,0,0,1,2.787,2.787" transform="translate(-63.574 -9.904)" fill="#feb900"/><path d="M270.165,2.787A2.787,2.787,0,1,1,267.378,0a2.787,2.787,0,0,1,2.787,2.787" transform="translate(-169.304)" fill="#feb900"/><path d="M56.718,225.735a2.787,2.787,0,1,1-2.787-2.787,2.787,2.787,0,0,1,2.787,2.787" transform="translate(-32.726 -142.658)" fill="#feb900"/><path d="M5.574,136.4a2.787,2.787,0,1,1-2.787-2.787A2.787,2.787,0,0,1,5.574,136.4" transform="translate(0 -85.495)" fill="#feb900"/><path d="M114.093,151.877a2.787,2.787,0,1,1-2.787-2.787,2.787,2.787,0,0,1,2.787,2.787" transform="translate(-69.438 -95.398)" fill="#feb900"/></g></svg>