<svg xmlns="http://www.w3.org/2000/svg" xmlns:xlink="http://www.w3.org/1999/xlink" width="96.096" height="105.776" viewBox="0 0 96.096 105.776"><defs><clipPath id="a"><rect width="96.096" height="105.776" fill="#feb900"/></clipPath></defs><g clip-path="url(#a)"><path d="M243.88,230a35.851,35.851,0,0,1-4.642-.295,1.441,1.441,0,0,1,.373-2.858,33.132,33.132,0,0,0,4.269.27c8.455,0,13.647-2.874,13.647-4.934a1.441,1.441,0,0,1,2.882,0c0,4.456-7.106,7.816-16.529,7.816" transform="translate(-164.665 -152.737)" fill="#feb900"/><path d="M244.2,265.413a36.179,36.179,0,0,1-4.491-.275,1.441,1.441,0,1,1,.361-2.86,33.223,33.223,0,0,0,4.13.253c8.455,0,13.647-2.874,13.647-4.934a1.441,1.441,0,0,1,2.882,0c0,4.456-7.106,7.816-16.529,7.816" transform="translate(-164.99 -177.238)" fill="#feb900"/><path d="M243.762,297.877a36.039,36.039,0,0,1-4.7-.3,1.441,1.441,0,0,1,.378-2.858,33.273,33.273,0,0,0,4.319.276c8.455,0,13.647-2.874,13.647-4.934a1.441,1.441,0,0,1,2.882,0c0,4.456-7.106,7.816-16.529,7.816" transform="translate(-164.547 -199.701)" fill="#feb900"/><path d="M220,182.389c-9.424,0-16.53-3.36-16.53-7.816s7.106-7.816,16.53-7.816,16.529,3.36,16.529,7.816-7.106,7.816-16.529,7.816m0-12.75c-8.456,0-13.648,2.874-13.648,4.934s5.192,4.934,13.648,4.934,13.647-2.874,13.647-4.934-5.192-4.934-13.647-4.934" transform="translate(-140.783 -115.382)" fill="#feb900"/><path d="M204.908,197.266a1.442,1.442,0,0,1-1.441-1.441v-6.934a1.441,1.441,0,0,1,2.882,0v6.934a1.442,1.442,0,0,1-1.441,1.441" transform="translate(-140.783 -129.7)" fill="#feb900"/><path d="M302.86,221.5a1.442,1.442,0,0,1-1.441-1.441V188.891a1.441,1.441,0,1,1,2.882,0V220.06a1.442,1.442,0,0,1-1.441,1.441" transform="translate(-208.558 -129.7)" fill="#feb900"/><path d="M140.108,287.98c-9.423,0-16.529-3.36-16.529-7.816a1.441,1.441,0,1,1,2.882,0c0,2.06,5.192,4.934,13.647,4.934s13.648-2.874,13.648-4.934a1.441,1.441,0,1,1,2.882,0c0,4.456-7.106,7.816-16.53,7.816" transform="translate(-85.507 -192.853)" fill="#feb900"/><path d="M140.108,322.548c-9.423,0-16.529-3.36-16.529-7.816a1.441,1.441,0,0,1,2.882,0c0,2.06,5.192,4.934,13.647,4.934s13.648-2.874,13.648-4.934a1.441,1.441,0,1,1,2.882,0c0,4.456-7.106,7.816-16.53,7.816" transform="translate(-85.507 -216.771)" fill="#feb900"/><path d="M140.108,239.089c-9.423,0-16.529-3.36-16.529-7.816s7.106-7.816,16.529-7.816,16.53,3.36,16.53,7.816-7.106,7.816-16.53,7.816m0-12.75c-8.455,0-13.647,2.874-13.647,4.934s5.192,4.934,13.647,4.934,13.648-2.874,13.648-4.934-5.192-4.934-13.648-4.934" transform="translate(-85.507 -154.614)" fill="#feb900"/><path d="M125.02,268.333a1.442,1.442,0,0,1-1.441-1.441v-21.3a1.441,1.441,0,0,1,2.882,0v21.3a1.442,1.442,0,0,1-1.441,1.441" transform="translate(-85.507 -168.932)" fill="#feb900"/><path d="M222.971,268.333a1.442,1.442,0,0,1-1.441-1.441v-21.3a1.441,1.441,0,0,1,2.882,0v21.3a1.442,1.442,0,0,1-1.441,1.441" transform="translate(-153.281 -168.932)" fill="#feb900"/><path d="M31.912,138.68H20.186A20.21,20.21,0,0,1,0,118.492V96.372a31.914,31.914,0,0,1,63.394-5.241,1.441,1.441,0,1,1-2.843.47A29.032,29.032,0,0,0,2.882,96.372v22.121a17.324,17.324,0,0,0,17.3,17.3H31.912a1.441,1.441,0,1,1,0,2.882" transform="translate(0 -44.601)" fill="#feb900"/><path d="M66.432,22.817a1.44,1.44,0,0,1-1.115-2.354L75.76,7.707a15.927,15.927,0,0,1-12.2-2.064c-4.583-3.3-8.912-3.594-13.268-.926L63.18,20.463a1.442,1.442,0,0,1-2.232,1.826L47.06,5.323a1.442,1.442,0,0,1,.257-2.07c5.839-4.334,11.839-4.337,17.831-.011,4.5,2.719,9.276,2.707,14.488-.1a1.442,1.442,0,0,1,1.8,2.182L67.549,22.289a1.442,1.442,0,0,1-1.117.527" transform="translate(-32.337 0)" fill="#feb900"/><path d="M81.281,154.633V142.627a19.317,19.317,0,0,1-5.76-2.682,6.782,6.782,0,0,1-2.507-5.585,7.045,7.045,0,0,1,2.682-5.365,9.322,9.322,0,0,1,5.585-2.419v-2.507q0-.747.836-.747.923,0,.923.836v2.418a14.083,14.083,0,0,1,4,.968q2.593,1.055,2.595,2.682,0,1.5-1.759,1.671a14.8,14.8,0,0,1-2.374-1.143,6.615,6.615,0,0,0-2.464-.88v9.455a18.463,18.463,0,0,1,6.245,3.122,8.127,8.127,0,0,1,2.462,6.333,8.316,8.316,0,0,1-2.595,6.157,10.16,10.16,0,0,1-6.113,2.815v2.595a.816.816,0,0,1-.923.923q-.835,0-.836-.923v-2.419a14.512,14.512,0,0,1-4.134-.572q-4.4-1.275-4.4-3.386,0-1.627,1.451-1.627a2.641,2.641,0,0,1,1.407.352,11.359,11.359,0,0,0,5.672,1.935m0-15.963v-8.8a4.83,4.83,0,0,0-3.012,1.363,3.962,3.962,0,0,0-1.21,2.947q0,3.034,4.221,4.486m1.759,4.661v11.126a5.1,5.1,0,0,0,3.387-2.089,6.417,6.417,0,0,0,1.274-3.892,4.459,4.459,0,0,0-1.319-3.43,10.167,10.167,0,0,0-3.343-1.715" transform="translate(-50.338 -85.329)" fill="#feb900"/><path d="M210.993,48.964a1.443,1.443,0,0,1-1.105-.515L192.952,28.221a1.441,1.441,0,0,1,1.105-2.367h6.337v-12.2a1.441,1.441,0,1,1,2.882,0V27.3a1.442,1.442,0,0,1-1.441,1.441h-4.691l13.849,16.541,13.849-16.541h-4.69a1.442,1.442,0,0,1-1.441-1.441V4.531a1.441,1.441,0,0,1,2.882,0V25.854h6.336a1.441,1.441,0,0,1,1.105,2.367L212.1,48.448a1.443,1.443,0,0,1-1.105.515" transform="translate(-133.275 -2.138)" fill="#feb900"/></g></svg>