<svg xmlns="http://www.w3.org/2000/svg" xmlns:xlink="http://www.w3.org/1999/xlink" width="76.618" height="97.842" viewBox="0 0 76.618 97.842"><defs><clipPath id="a"><rect width="76.618" height="97.842" fill="#307dcb"/></clipPath></defs><g transform="translate(0 0)" clip-path="url(#a)"><path d="M28.48,2.911q-1.571,0-3.144,0a2.5,2.5,0,0,1,3.144,0" transform="translate(28.052 2.607)" fill="#307dcb"/><path d="M25.378,4.2a2.262,2.262,0,0,1,2.994-.15l-2.994.15" transform="translate(28.098 3.937)" fill="#307dcb"/><path d="M71.458,38.863c-.788-.183-1.58-.419-2.35-.62-1.7-.438-3.506-.94-4.467-2.792,2.514-2.474,5.226-4.908,6.166-8.635.2-.8.778-1.719-.3-2.025A1.781,1.781,0,0,0,68,26.009c-1.245,3.34-3.245,6.22-6.659,7.795a5.578,5.578,0,0,0-2.413,2.577c-1.178,2.006-1.985,4.276-3.759,6.054-.769-1.193-1.5-2.267-2.173-3.38-1.351-2.238-2.263-4.543-4.916-6.031-7.422-4.155-8.4-14.7-2.649-20.783,2.253-2.383,5.2-3.074,8.047-4.1a3.9,3.9,0,0,1,2.994-.15c.356.192.7.523,1.07.554a12.244,12.244,0,0,1,7.453,3.715A14,14,0,0,1,68.594,19c.251.881.759,1.829,1.808,1.49a1.674,1.674,0,0,0,1.178-1.977c-1.707-7.053-7.7-13.082-15.048-12.993a4.977,4.977,0,0,0-3.142,0,9.573,9.573,0,0,0-4.046.813C46.26,7.481,43.661,10.376,39.866,9a3.422,3.422,0,0,0-3.6,0c-2.718.3-4.526-1.589-6.572-2.822a4.167,4.167,0,0,0-4.627-.135c-1.507.98-.856,2.617-.609,4.092.242,1.456,1.2,2.889,2.223,3.051,3.875.613,6.4,3.616,9.79,5a1.077,1.077,0,0,1,.388.284c.525.59,2.031-.483,1.911.923-.158,1.823.925,3.884-.849,5.441-.963.845-1.928,1.218-2.868-.089a2,2,0,0,0-2.1-1.047c-2.421.51-3.321-.723-3.766-2.935-.518-2.564-2.036-4.263-4.933-4.162a2.539,2.539,0,0,0-3.142,0c-2.033.459-2.857-.887-3.422-2.421a15.789,15.789,0,0,1-.552-2.857c-.306-1.825-.868-3.287-3.171-3.31A2.4,2.4,0,0,1,11.6,6.591C10.391,3.409,7.673,2.073,4.75,1.037A1.666,1.666,0,0,1,3.521,0H2.008C-1.61,3.026.582,6.366,1.5,9.624a14.637,14.637,0,0,0,1.11,3.2c3.508,6.225,8.241,10.941,15.568,12.414,1.5.3,3.652.348,4.286,1.311,1.635,2.489,4.046,3.471,6.465,4.623,1.553.74,2.036,1.7,1.42,3.515-.476,1.408-1.22,2.651-1.762,4-1.907,4.764-1.153,9.626,3.551,12.439,1.816,1.085,3.473,2.434,5.226,3.626,3.028,2.063,3.7,3.835,2.63,7.346a3.327,3.327,0,0,0-.08,1.448c-.055.339-.11.676-.166,1.016a2.582,2.582,0,0,0-.006,3.015l.169.506c-.52,2.383.6,4.655.474,7.013v2.623a15.617,15.617,0,0,1-.872,6.046c-2.173,5.673.963,11.632,5.862,14.078h4.539c.955-.83,1.892-1.589,2.055-3.047.2-1.772-.664-2.5-2.147-3.049a2.519,2.519,0,0,1-1.393-2.417,15.586,15.586,0,0,1,.059-4.762c.43-1.652-.027-3.8,2.4-4.674a10.11,10.11,0,0,0,6.079-6.372,8.7,8.7,0,0,1,3.812-4.792c1.092-.622.851-1.368.523-2.027-.379-.765-1.064-.672-1.913-.348a8.49,8.49,0,0,0-4.908,5.432c-.957,2.558-2.272,4.488-5.078,5.477a5.166,5.166,0,0,0-3.536,5.3,8.6,8.6,0,0,1-.137,1.977c-.8,3.907-.6,7.516,3.285,10.407-1.526-.379-2.685.263-3.787-.537a8.277,8.277,0,0,1-3.089-9.225,39.544,39.544,0,0,0,1.262-7.459,1.829,1.829,0,0,0,0-2.638c-.775-2.455-.434-5-.63-7.5l0-3.026a6.648,6.648,0,0,1,.124-1.989c1.713-4.463-.936-8.768-5.03-11.193-2.436-1.441-5.232-2.64-6.629-5.428-.148-1.361.438-2.792-.4-4.086.112-2.008,1.29-3.62,2.048-5.382,1.513-3.519.539-6.4-2.841-8.13-2-1.024-4.316-1.585-5.4-3.917-.238-.516-.946-.552-1.456-.79-2.234-1.043-4.731-1.054-6.985-1.941A20.724,20.724,0,0,1,6.45,13.718C4.419,10.684,3.585,7.2,2.921,3.279c2.771,1.347,5.243,2.141,6.279,5a3.282,3.282,0,0,0,2.508,2.236c2.217.076,2.579,1.465,2.921,3.136.752,3.7,2.773,6.655,7.483,6.033.66-.086,1.347.036,2.012-.023,1.458-.124,2.008.394,2.149,1.962a5.36,5.36,0,0,0,5.477,5.108c.657.025,1.387-.145,1.808.556,1.262,2.109,3.14,1.679,4.792.891,1.353-.645,1.654-.1,2.16.917a14.243,14.243,0,0,0,5.744,6.275,10.289,10.289,0,0,1,3.637,3.9c1.062,1.719,1.972,3.536,2.946,5.312,1.395,2.541,3.133,2.7,4.619.308,1.113-1.787,1.981-3.726,3.077-5.525.712-1.165,1.365-2.586,2.959-.487a5.071,5.071,0,0,0,3.542,1.981,13.55,13.55,0,0,1,4.661,1.3c2.1.944,2.417,1.7,1.532,3.9a9.069,9.069,0,0,1-1.658,2.7c-1.247,1.4-2.3,2.986-3.525,4.41-2.194,2.55-2.672,5.854-4.054,8.749a1.6,1.6,0,0,0,.657,2.438c1.043.615,1.441-.156,2.033-1.033,1.051-1.555,1.085-3.382,1.749-5.03,1.368-3.388,4.141-5.658,6.107-8.545,2.824-4.151,3.616-9.32-3.077-10.873M29.531,11.482c-.944-.4-2.04-.788-2.278-2.008a1.426,1.426,0,0,1,.263-.837A4.678,4.678,0,0,1,29.83,9.866c.573.491,1.5.483,2.095,1.443a2.933,2.933,0,0,1-2.394.173m9.116,4.463A4.588,4.588,0,0,1,34,12.586l.984-.078a4.832,4.832,0,0,1,5.555.051h-.464l.666.07c-.8,1.22-.887,3.313-2.1,3.317" transform="translate(0 -0.001)" fill="#307dcb"/><path d="M31.53,5.745c-6.189,0-9.718,3.6-10.024,9.5C21.238,20.43,26.782,25.53,31.3,25.475a10.188,10.188,0,0,0,9.978-10.23c-.145-5.89-3.717-9.5-9.748-9.5m-.122,16.672a7.2,7.2,0,0,1-6.84-7.175C24.4,10.887,27.64,8.35,31.4,8.345s7.478,2.449,6.821,6.832c.71,3.835-3.5,7.346-6.815,7.24" transform="translate(23.801 6.36)" fill="#307dcb"/></g></svg>