<svg xmlns="http://www.w3.org/2000/svg" xmlns:xlink="http://www.w3.org/1999/xlink" width="97.839" height="97.861" viewBox="0 0 97.839 97.861"><defs><clipPath id="a"><rect width="97.839" height="97.861" fill="#307dcb"/></clipPath></defs><g transform="translate(0 0)" clip-path="url(#a)"><path d="M94.076,25a13.175,13.175,0,0,1-5.428-2.484,18.146,18.146,0,0,0-9.653-3.766,19.8,19.8,0,0,1-8.935-3.032c-2.246-1.382-4.518-2.969-7.4-2.76-.148-.008-.3,0-.445,0-1.068-.752-2.491-.055-3.629-.533a2.6,2.6,0,0,1,.089-.83C59.8,8.711,58.2,6.419,56.96,4.082,55.122.624,52.629.525,50.619,3.825c-.689,1.132-1.363,2.109-2.855,2.038-.9.036-1.806.025-2.712.021a20.02,20.02,0,0,0-6.357,1.3c-2.575.839-2.505.813-3.449-1.8C34.51,3.35,34.451.811,31.772,0H30.259c-2.4.915-4.615,2.3-7.3,2.463-1.9.114-2.788,1.347-2.647,3.268.129.287.287.573.415.86a2.684,2.684,0,0,0,.051,1.538,2,2,0,0,1-.291.373c-1.094,1.418-2.154,1.273-3.629.318C13.13,6.4,7.714,8.945,7.032,13.3a12.04,12.04,0,0,0,.5,5.19c.794,2.822.015,5.681-1.892,6.364A7.989,7.989,0,0,0,0,32.284V35.31a41.176,41.176,0,0,0,3.447,4.91c1.264,1.73,2.449,3.074,4.794,2.664,1.922-.335,3.921.569,5.818-.641q15.693-10,31.467-19.863c1.757-1.1,3.66-2.727,5.807-.523.767.786,1.144-.013,1.616-.424a1.2,1.2,0,0,0,.255-1.764A5.488,5.488,0,0,0,46.535,18.3C35.344,25.32,24.111,32.274,13.008,39.432c-2.2,1.416-4.048.995-5.936.07-1.068-.523-1.808-1.713-2.7-2.6a4.284,4.284,0,0,1-1.054-4.726c.609-2.023,1.439-3.61,3.755-3.945,1.033-.15,2.432-.228,2.8-1.184,1.1-2.864,2.51-5.833,1.351-8.962a15.189,15.189,0,0,1-.649-4.1c-.137-1.469.729-1.724,1.867-2.08,1.195-.373,2.244-.672,3.144.432,2.141,2.626,2.132,2.636,4.853.756a19.175,19.175,0,0,1,1.793-1.266c1.545-.818,2.423-1.772,1.574-3.688-.234-.531-.679-1.989.531-2.006,1.871-.027,3.251-1.062,4.762-1.781,1.456-.691,2.044-.413,2.39,1.1.341,1.49.832,2.95,1.306,4.408.885,2.718,1.532,2.929,4.189,1.9,2.71-1.054,5.335-2.514,8.406-2.267l2.531,0c2,.223,3.884.52,4.7-2.179.348-1.155,1.262-1.081,2.109.15,1.5,2.173.257,4.1-.333,5.991-.447,1.422-.135,2.076,1.068,2.6q3.294,0,6.587,0c1.138.6,2.421.714,3.62,1.3,4.1,2,7.767,4.988,12.786,4.969a10.807,10.807,0,0,1,6.423,1.854c2.6,1.88,5.108,4.077,8.629,4.168.569.015.877.7.834,1.353q0,3.84,0,7.685a.525.525,0,0,0,.053.445c-.19,2.845-3.757,1.629-4.514,3.734s-1.524,4.168-3.624,5.346a2.341,2.341,0,0,1-.858.428c-1.483.072-1.614,1.134-1.673,2.225A35.484,35.484,0,0,1,75.3,71.2c-.687.811-1.37,1.684-2.691,1.452-3.9-.681-7.154,1.279-10.5,2.729a6.283,6.283,0,0,0-3.7,5.1c-.322,1.772-.038,3.726-1.4,5.333-2.006,2.373-3.82,4.908-5.7,7.386-.685.9-1.395,1.218-2.385.394-2.017-1.675-4.267-3.072-6.062-5.1,1.46-1.443,2.929-2.828,4.318-4.286a6.292,6.292,0,0,0,1.456-7.057,54.016,54.016,0,0,0-2.318-5.582c-.457-.879-.847-2.244-2.392-1.977l-.563-.563c-1.043-.8-2.253-.272-3.378-.426-.025-.188-.036-.375-.053-.561a10.784,10.784,0,0,0-.017-6.492c-.105-.369.141-.493.415-.6,2.415,1.5,4.836,3,7.242,4.518a2.258,2.258,0,0,0,2.655.006q7.915-5.019,15.863-9.988c6.258-3.9,12.544-7.759,18.813-11.644,2.409-1.492,2.362-2.449.038-4.107-4.309-3.077-8.926-5.658-13.4-8.473-4.33-2.725-8.633-5.489-12.974-8.2-.976-.611-2.183-.811-2.881.27-.792,1.231.394,1.593,1.252,2.126,4.695,2.91,9.343,5.9,14.028,8.825,3.3,2.063,6.661,4.031,9.906,6.174.451.3,2.535.822.407,2.132Q65.766,52.161,50.36,61.927a2.175,2.175,0,0,1-2.853.032c-2.967-1.979-6.1-3.7-9.074-5.675-1.671-1.115-3.943-1.736-4.008-4.455-.065-2.619-1.277-4.058-4.115-4.773-3.062-.769-6.981-.866-7.934-5.2-.131-.592-1.007-.744-1.5-.333s-1.429.706-1.068,1.719c.554,1.551,1.119,3.091,2.586,4.063a19.007,19.007,0,0,0,6.751,2.56c1.431.3,2.392.919,2.4,2.189.017,3.635,2.339,5.241,5.211,6.486.006.124,0,.249.011.375a.545.545,0,0,1-.034.11,25.033,25.033,0,0,0,0,10.075c.057.169.112.339.169.51-.091,1.384.971,1.861,1.913,2.434l4.522.158a28.542,28.542,0,0,0,2.128,5.1c1.625,2.468.693,4.1-1.153,5.759a44.153,44.153,0,0,0-3.376,3.388c-1.576,1.762-1.292,3.437.556,4.9,2.685,2.122,5.293,4.341,7.934,6.518h2.017c2.409-1.526,3.641-4.113,5.493-6.145,2.619-2.876,4.956-5.93,4.914-10.155A2.982,2.982,0,0,1,63.271,79c2.541-1.458,5.146-3.1,8.163-2.937,3.232.175,5.418-1.161,7.291-3.572,4.077-5.251,7.325-10.827,7.784-17.679.166-2.484.912-4.726,3.283-6.166A6.312,6.312,0,0,0,91.9,45.859a6.46,6.46,0,0,1,2.64-2.946,12.512,12.512,0,0,0,3.3-3.062V27.746A6.4,6.4,0,0,0,94.076,25" transform="translate(0 0)" fill="#307dcb"/><path d="M16.721,27.188c-.333,6.983,6.905,14.257,14.1,13.7a13.5,13.5,0,0,0,12.409-9.457A13.28,13.28,0,0,0,31.99,13.679a2.524,2.524,0,0,0-3.144,0c-6.789.2-11.773,6.113-12.125,13.511m20.887,7.835c-5.026,4.446-11.762,3.854-15.654-1.443a10.873,10.873,0,0,1-2.189-4.535c-.744-4.115-.5-4.606,3.591-4.825q1.264,0,2.531,0A15.91,15.91,0,0,1,38,31.061c1.163,1.629.955,2.769-.394,3.962M23.34,19.065a10.253,10.253,0,0,1,10.624-1.993A9.832,9.832,0,0,1,41.008,26.4c.006.9,0,1.8,0,3.218-2.522-2.609-4.621-4.9-7.4-6.252a17.883,17.883,0,0,0-9.2-2.114c-.78.055-1.875.426-2.272-.514-.346-.826.7-1.228,1.2-1.675" transform="translate(18.501 14.536)" fill="#307dcb"/></g></svg>